<svg width="574" height="785" viewBox="0 0 574 785" fill="none" xmlns="http://www.w3.org/2000/svg">
<g clip-path="url(#clip0_1871_125923)">
<g opacity="0.08">
<path d="M273.042 126.169L223.236 211.304C220.794 215.523 217.253 219.029 212.978 221.464C208.702 223.899 203.844 225.175 198.902 225.162H113.649C118.59 225.167 123.444 223.887 127.719 221.453C131.993 219.019 135.534 215.518 137.984 211.304L187.789 126.169C190.171 122.064 191.455 117.434 191.52 112.71C191.555 107.786 190.238 102.944 187.708 98.6929L137.497 13.7168C135.287 9.99645 132.221 6.83478 128.545 4.48411C124.87 2.13344 120.685 0.658821 116.326 0.177993H198.577C203.499 0.172978 208.336 1.43522 212.606 3.8388C216.876 6.24237 220.43 9.70325 222.912 13.8761L273.042 98.8522C275.572 103.103 276.889 107.945 276.854 112.869C276.772 117.551 275.459 122.132 273.042 126.169ZM155.261 126.169L105.375 211.304C102.928 215.514 99.3849 219.009 95.1085 221.43C90.8321 223.851 85.9765 225.111 81.0401 225.082H-2.83378H-4.375C0.580465 225.063 5.44245 223.756 9.7167 221.294C13.9909 218.832 17.525 215.303 19.9598 211.065L69.765 125.93C72.22 121.826 73.5087 117.151 73.4964 112.391C73.5482 107.476 72.2599 102.636 69.765 98.3744L19.6354 14.115C17.4301 10.3905 14.366 7.22559 10.6892 4.87431C7.01238 2.52303 2.82533 1.05095 -1.5359 0.576219H80.7157C85.6472 0.57125 90.493 1.84213 94.765 4.26088C99.0371 6.67963 102.585 10.1609 105.05 14.354L155.261 99.2504C157.781 103.506 159.097 108.345 159.074 113.267C158.943 117.942 157.633 122.512 155.261 126.567V126.169Z" fill="url(#paint0_linear_1871_125923)"/>
</g>
<g opacity="0.08">
<path d="M273.042 389.713L223.236 473.908C220.794 478.08 217.253 481.548 212.978 483.956C208.702 486.364 203.844 487.625 198.902 487.612H113.649C118.59 487.617 123.444 486.352 127.719 483.945C131.993 481.538 135.534 478.075 137.984 473.908L187.789 389.713C190.171 385.654 191.455 381.075 191.52 376.403C191.555 371.534 190.238 366.745 187.708 362.541L137.497 278.504C135.287 274.825 132.221 271.698 128.545 269.373C124.87 267.049 120.685 265.59 116.326 265.115H198.577C203.499 265.11 208.336 266.358 212.606 268.735C216.876 271.112 220.43 274.535 222.912 278.662L273.042 362.699C275.572 366.903 276.889 371.691 276.854 376.56C276.772 381.191 275.459 385.722 273.042 389.713ZM155.261 389.713L105.375 473.908C102.928 478.071 99.3849 481.527 95.1085 483.922C90.8321 486.316 85.9765 487.563 81.0401 487.534H-2.83378H-4.375C0.580465 487.515 5.44245 486.222 9.7167 483.788C13.9909 481.353 17.525 477.863 19.9598 473.672L69.765 389.477C72.22 385.419 73.5087 380.795 73.4964 376.088C73.5482 371.227 72.2599 366.441 69.765 362.226L19.6354 278.898C17.4301 275.214 14.366 272.084 10.6892 269.759C7.01238 267.434 2.82533 265.978 -1.5359 265.509H80.7157C85.6472 265.504 90.493 266.761 94.765 269.153C99.0371 271.545 102.585 274.987 105.05 279.134L155.261 363.092C157.781 367.301 159.097 372.086 159.074 376.954C158.943 381.577 157.633 386.097 155.261 390.107V389.713Z" fill="url(#paint1_linear_1871_125923)"/>
</g>
<g opacity="0.08">
<path d="M559.197 126.169L509.942 211.304C507.526 215.523 504.025 219.029 499.797 221.464C495.568 223.899 490.764 225.175 485.876 225.162H401.565C406.452 225.167 411.252 223.887 415.479 221.453C419.706 219.019 423.209 215.518 425.631 211.304L474.886 126.169C477.242 122.064 478.511 117.434 478.576 112.71C478.611 107.786 477.308 102.944 474.806 98.6929L425.15 13.7168C422.964 9.99645 419.932 6.83478 416.297 4.48411C412.662 2.13344 408.524 0.658821 404.212 0.177993H485.555C490.423 0.172978 495.206 1.43522 499.429 3.8388C503.652 6.24237 507.166 9.70325 509.621 13.8761L559.197 98.8522C561.699 103.103 563.002 107.945 562.967 112.869C562.886 117.551 561.587 122.132 559.197 126.169ZM442.718 126.169L393.383 211.304C390.963 215.514 387.459 219.009 383.23 221.43C379 223.851 374.199 225.111 369.317 225.082H286.37H284.845C289.746 225.063 294.554 223.756 298.781 221.294C303.008 218.832 306.503 215.303 308.911 211.065L358.166 125.93C360.594 121.826 361.868 117.151 361.856 112.391C361.908 107.476 360.634 102.636 358.166 98.3744L308.59 14.115C306.41 10.3905 303.379 7.22559 299.743 4.87431C296.107 2.52303 291.966 1.05095 287.653 0.576219H368.996C373.873 0.57125 378.665 1.84213 382.89 4.26088C387.115 6.67963 390.623 10.1609 393.062 14.354L442.718 99.2504C445.209 103.506 446.511 108.345 446.488 113.267C446.359 117.942 445.063 122.512 442.718 126.567V126.169Z" fill="url(#paint2_linear_1871_125923)"/>
</g>
<g opacity="0.08">
<path d="M559.197 389.713L509.942 473.908C507.526 478.08 504.025 481.548 499.797 483.956C495.568 486.364 490.764 487.625 485.876 487.612H401.565C406.452 487.617 411.252 486.352 415.479 483.945C419.706 481.538 423.209 478.075 425.631 473.908L474.886 389.713C477.242 385.654 478.511 381.075 478.576 376.403C478.611 371.534 477.308 366.745 474.806 362.541L425.15 278.504C422.964 274.825 419.932 271.698 416.297 269.373C412.662 267.049 408.524 265.59 404.212 265.115H485.555C490.423 265.11 495.206 266.358 499.429 268.735C503.652 271.112 507.166 274.535 509.621 278.662L559.197 362.699C561.699 366.903 563.002 371.691 562.967 376.56C562.886 381.191 561.587 385.722 559.197 389.713ZM442.718 389.713L393.383 473.908C390.963 478.071 387.459 481.527 383.23 483.922C379 486.316 374.199 487.563 369.317 487.534H286.37H284.845C289.746 487.515 294.554 486.222 298.781 483.788C303.008 481.353 306.503 477.863 308.911 473.672L358.166 389.477C360.594 385.419 361.868 380.795 361.856 376.088C361.908 371.227 360.634 366.441 358.166 362.226L308.59 278.898C306.41 275.214 303.379 272.084 299.743 269.759C296.107 267.434 291.966 265.978 287.653 265.509H368.996C373.873 265.504 378.665 266.761 382.89 269.153C387.115 271.545 390.623 274.987 393.062 279.134L442.718 363.092C445.209 367.301 446.511 372.086 446.488 376.954C446.359 381.577 445.063 386.097 442.718 390.107V389.713Z" fill="url(#paint3_linear_1871_125923)"/>
</g>
<g opacity="0.08">
<path d="M273.042 653.558L223.236 738.693C220.794 742.912 217.253 746.418 212.978 748.853C208.702 751.288 203.844 752.564 198.902 752.551H113.649C118.59 752.556 123.444 751.276 127.719 748.842C131.993 746.408 135.534 742.907 137.984 738.693L187.789 653.558C190.171 649.453 191.455 644.822 191.52 640.099C191.555 635.175 190.238 630.333 187.708 626.082L137.497 541.106C135.287 537.385 132.221 534.224 128.545 531.873C124.87 529.522 120.685 528.048 116.326 527.567H198.577C203.499 527.562 208.336 528.824 212.606 531.228C216.876 533.631 220.43 537.092 222.912 541.265L273.042 626.241C275.572 630.492 276.889 635.334 276.854 640.258C276.772 644.94 275.459 649.521 273.042 653.558ZM155.261 653.558L105.375 738.693C102.928 742.903 99.3849 746.397 95.1085 748.819C90.8321 751.24 85.9765 752.5 81.0401 752.471H-2.83378H-4.375C0.580465 752.452 5.44245 751.145 9.7167 748.683C13.9909 746.221 17.525 742.692 19.9598 738.454L69.765 653.319C72.22 649.215 73.5087 644.539 73.4964 639.78C73.5482 634.865 72.2599 630.025 69.765 625.763L19.6354 541.504C17.4301 537.779 14.366 534.615 10.6892 532.263C7.01238 529.912 2.82533 528.44 -1.5359 527.965H80.7157C85.6472 527.96 90.493 529.231 94.765 531.65C99.0371 534.069 102.585 537.55 105.05 541.743L155.261 626.639C157.781 630.895 159.097 635.734 159.074 640.656C158.943 645.331 157.633 649.9 155.261 653.956V653.558Z" fill="url(#paint4_linear_1871_125923)"/>
</g>
<g opacity="0.08">
<path d="M559.197 653.558L509.942 738.693C507.526 742.912 504.025 746.418 499.797 748.853C495.568 751.288 490.764 752.564 485.876 752.551H401.565C406.452 752.556 411.252 751.276 415.479 748.842C419.706 746.408 423.209 742.907 425.631 738.693L474.886 653.558C477.242 649.453 478.511 644.822 478.576 640.099C478.611 635.175 477.308 630.333 474.806 626.082L425.15 541.106C422.964 537.385 419.932 534.224 416.297 531.873C412.662 529.522 408.524 528.048 404.212 527.567H485.555C490.423 527.562 495.206 528.824 499.429 531.228C503.652 533.631 507.166 537.092 509.621 541.265L559.197 626.241C561.699 630.492 563.002 635.334 562.967 640.258C562.886 644.94 561.587 649.521 559.197 653.558ZM442.718 653.558L393.383 738.693C390.963 742.903 387.459 746.397 383.23 748.819C379 751.24 374.199 752.5 369.317 752.471H286.37H284.845C289.746 752.452 294.554 751.145 298.781 748.683C303.008 746.221 306.503 742.692 308.911 738.454L358.166 653.319C360.594 649.215 361.868 644.539 361.856 639.78C361.908 634.865 360.634 630.025 358.166 625.763L308.59 541.504C306.41 537.779 303.379 534.615 299.743 532.263C296.107 529.912 291.966 528.44 287.653 527.965H368.996C373.873 527.96 378.665 529.231 382.89 531.65C387.115 534.069 390.623 537.55 393.062 541.743L442.718 626.639C445.209 630.895 446.511 635.734 446.488 640.656C446.359 645.331 445.063 649.9 442.718 653.956V653.558Z" fill="url(#paint5_linear_1871_125923)"/>
</g>
<rect x="-8.39259" width="581.726" height="784.691" fill="url(#paint6_linear_1871_125923)"/>
</g>
<defs>
<linearGradient id="paint0_linear_1871_125923" x1="-4.375" y1="112.67" x2="276.855" y2="112.67" gradientUnits="userSpaceOnUse">
<stop stop-color="#0B7425"/>
<stop offset="0.486111" stop-color="#3C931E"/>
<stop offset="1" stop-color="#DBED0A"/>
</linearGradient>
<linearGradient id="paint1_linear_1871_125923" x1="-4.375" y1="376.364" x2="276.855" y2="376.364" gradientUnits="userSpaceOnUse">
<stop stop-color="#0B7425"/>
<stop offset="0.486111" stop-color="#3C931E"/>
<stop offset="1" stop-color="#DBED0A"/>
</linearGradient>
<linearGradient id="paint2_linear_1871_125923" x1="284.845" y1="112.67" x2="562.968" y2="112.67" gradientUnits="userSpaceOnUse">
<stop stop-color="#0B7425"/>
<stop offset="0.486111" stop-color="#3C931E"/>
<stop offset="1" stop-color="#DBED0A"/>
</linearGradient>
<linearGradient id="paint3_linear_1871_125923" x1="284.845" y1="376.364" x2="562.968" y2="376.364" gradientUnits="userSpaceOnUse">
<stop stop-color="#0B7425"/>
<stop offset="0.486111" stop-color="#3C931E"/>
<stop offset="1" stop-color="#DBED0A"/>
</linearGradient>
<linearGradient id="paint4_linear_1871_125923" x1="-4.375" y1="640.059" x2="276.855" y2="640.059" gradientUnits="userSpaceOnUse">
<stop stop-color="#0B7425"/>
<stop offset="0.486111" stop-color="#3C931E"/>
<stop offset="1" stop-color="#DBED0A"/>
</linearGradient>
<linearGradient id="paint5_linear_1871_125923" x1="284.845" y1="640.059" x2="562.968" y2="640.059" gradientUnits="userSpaceOnUse">
<stop stop-color="#0B7425"/>
<stop offset="0.486111" stop-color="#3C931E"/>
<stop offset="1" stop-color="#DBED0A"/>
</linearGradient>
<linearGradient id="paint6_linear_1871_125923" x1="283.318" y1="784.691" x2="283.318" y2="-2.04975e-06" gradientUnits="userSpaceOnUse">
<stop stop-color="#006E26"/>
<stop offset="0.82803" stop-color="#006E26" stop-opacity="0"/>
</linearGradient>
<clipPath id="clip0_1871_125923">
<rect width="575.333" height="784.691" fill="white" transform="translate(-2)"/>
</clipPath>
</defs>
</svg>
