<svg width="562" height="376" viewBox="0 0 562 376" fill="none" xmlns="http://www.w3.org/2000/svg">
<path d="M85.2782 100.46C80.0162 35.5872 143.02 -13.3872 204.589 7.7162L238.127 19.2114C248.893 22.9014 260.126 25.051 271.493 25.5965L364.493 30.0593C404.604 31.9841 441.419 52.8361 463.696 86.2472C471.533 98.0016 481.283 108.36 492.543 116.894L504.661 126.078C530.324 145.527 547.287 174.307 551.875 206.179C562.493 279.948 505.268 346 430.739 346H88.0688C-0.287407 346 -32.4533 229.595 43.3669 184.228C71.8098 167.21 88.1218 135.517 85.442 102.48L85.2782 100.46Z" fill="white"/>
<path fill-rule="evenodd" clip-rule="evenodd" d="M88.0688 345H430.739C504.659 345 561.416 279.488 550.885 206.322C546.335 174.71 529.51 146.166 504.057 126.875L491.938 117.691C480.59 109.09 470.763 98.6493 462.863 86.802C440.763 53.6549 404.239 32.9678 364.445 31.0582L271.445 26.5954C259.984 26.0454 248.658 23.8779 237.803 20.1573L204.265 8.66217C143.377 -12.2075 81.0712 36.2246 86.2749 100.379L86.4388 102.399C89.1493 135.816 72.65 167.872 43.8804 185.086C-31.069 229.932 0.727455 345 88.0688 345ZM204.589 7.7162C143.02 -13.3872 80.0162 35.5872 85.2782 100.46L85.442 102.48C88.1218 135.517 71.8098 167.21 43.3669 184.228C-32.4533 229.595 -0.287407 346 88.0688 346H430.739C505.268 346 562.493 279.948 551.875 206.179C547.287 174.307 530.324 145.527 504.661 126.078L492.543 116.894C481.283 108.36 471.533 98.0016 463.696 86.2472C441.419 52.8361 404.604 31.9841 364.493 30.0593L271.493 25.5965C260.126 25.051 248.893 22.9014 238.127 19.2114L204.589 7.7162Z" fill="white"/>
<path fill-rule="evenodd" clip-rule="evenodd" d="M130.172 108.5C130.172 105.462 132.635 103 135.672 103H440.599C443.636 103 446.099 105.462 446.099 108.5V280.29C446.099 283.328 443.636 285.79 440.599 285.79H210.188V282.79H440.599C441.979 282.79 443.099 281.671 443.099 280.29V108.5C443.099 107.119 441.979 106 440.599 106H135.672C134.292 106 133.172 107.119 133.172 108.5V139.206H130.172V108.5ZM440.599 293.756H207.361V290.756H440.599C443.637 290.756 446.099 293.218 446.099 296.256V300.773C446.099 303.81 443.637 306.273 440.599 306.273H199.948V303.273H440.599C441.98 303.273 443.099 302.154 443.099 300.773V296.256C443.099 294.875 441.98 293.756 440.599 293.756ZM296.1 253.98C326.18 253.98 350.565 229.596 350.565 199.516C350.565 169.436 326.18 145.051 296.1 145.051C266.02 145.051 241.636 169.436 241.636 199.516C241.636 229.596 266.02 253.98 296.1 253.98ZM296.1 256.98C327.837 256.98 353.565 231.253 353.565 199.516C353.565 167.779 327.837 142.051 296.1 142.051C264.364 142.051 238.636 167.779 238.636 199.516C238.636 231.253 264.364 256.98 296.1 256.98ZM283.015 179.602C283.015 181.488 281.487 183.016 279.601 183.016C277.716 183.016 276.188 181.488 276.188 179.602C276.188 177.717 277.716 176.189 279.601 176.189C281.487 176.189 283.015 177.717 283.015 179.602ZM313.739 183.016C315.624 183.016 317.153 181.488 317.153 179.602C317.153 177.717 315.624 176.189 313.739 176.189C311.854 176.189 310.325 177.717 310.325 179.602C310.325 181.488 311.854 183.016 313.739 183.016ZM305.229 223.429C307.107 222.199 308.324 220.284 308.324 217.153C308.324 210.716 303.106 205.498 296.669 205.498C290.232 205.498 285.014 210.716 285.014 217.153C285.014 220.284 286.231 222.199 288.109 223.429C290.117 224.743 293.082 225.395 296.669 225.395C300.256 225.395 303.221 224.743 305.229 223.429ZM296.669 227.395C304.211 227.395 310.324 224.695 310.324 217.153C310.324 209.612 304.211 203.498 296.669 203.498C289.128 203.498 283.014 209.612 283.014 217.153C283.014 224.695 289.128 227.395 296.669 227.395ZM145 116.5C145 115.672 145.672 115 146.5 115H429.5H431V116.5V137C431 137.828 430.328 138.5 429.5 138.5C428.672 138.5 428 137.828 428 137V118H146.5C145.672 118 145 117.328 145 116.5ZM104 150.602C104 147.565 106.462 145.102 109.5 145.102H190.257C193.295 145.102 195.757 147.565 195.757 150.602V300.772C195.757 303.81 193.295 306.272 190.257 306.272H109.5C106.462 306.272 104 303.81 104 300.772V150.602ZM109.5 148.102C108.119 148.102 107 149.222 107 150.602V300.772C107 302.153 108.119 303.272 109.5 303.272H190.257C191.638 303.272 192.757 302.153 192.757 300.772V150.602C192.757 149.222 191.638 148.102 190.257 148.102H109.5ZM152.154 157.982C152.154 159.238 151.135 160.257 149.878 160.257C148.621 160.257 147.602 159.238 147.602 157.982C147.602 156.725 148.621 155.706 149.878 155.706C151.135 155.706 152.154 156.725 152.154 157.982ZM137.362 152.292C136.733 152.292 136.224 152.801 136.224 153.43C136.224 154.058 136.733 154.568 137.362 154.568H162.396C163.024 154.568 163.534 154.058 163.534 153.43C163.534 152.801 163.024 152.292 162.396 152.292H137.362ZM174.189 228.532C174.189 241.958 163.305 252.842 149.879 252.842C136.453 252.842 125.569 241.958 125.569 228.532C125.569 215.106 136.453 204.222 149.879 204.222C163.305 204.222 174.189 215.106 174.189 228.532ZM177.189 228.532C177.189 243.615 164.962 255.842 149.879 255.842C134.796 255.842 122.569 243.615 122.569 228.532C122.569 213.449 134.796 201.222 149.879 201.222C164.962 201.222 177.189 213.449 177.189 228.532ZM142.036 220.691C142.932 220.691 143.659 219.965 143.659 219.069C143.659 218.173 142.932 217.447 142.036 217.447C141.14 217.447 140.414 218.173 140.414 219.069C140.414 219.965 141.14 220.691 142.036 220.691ZM159.883 219.069C159.883 219.965 159.157 220.691 158.261 220.691C157.365 220.691 156.638 219.965 156.638 219.069C156.638 218.173 157.365 217.447 158.261 217.447C159.157 217.447 159.883 218.173 159.883 219.069ZM154.638 236.915C154.638 238.067 154.223 238.639 153.642 239.019C152.931 239.485 151.757 239.782 150.149 239.782C148.54 239.782 147.367 239.485 146.655 239.019C146.074 238.639 145.659 238.067 145.659 236.915C145.659 234.435 147.669 232.425 150.149 232.425C152.628 232.425 154.638 234.435 154.638 236.915ZM156.638 236.915C156.638 240.499 153.733 241.782 150.149 241.782C146.565 241.782 143.659 240.499 143.659 236.915C143.659 233.331 146.565 230.425 150.149 230.425C153.733 230.425 156.638 233.331 156.638 236.915Z" fill="url(#paint0_linear_878_57308)"/>
<defs>
<linearGradient id="paint0_linear_878_57308" x1="104" y1="204.636" x2="446.099" y2="204.636" gradientUnits="userSpaceOnUse">
<stop stop-color="#0B7425"/>
<stop offset="0.486111" stop-color="#3C931E"/>
<stop offset="1" stop-color="#DBED0A"/>
</linearGradient>
</defs>
</svg>
